PathFileType	4	(X/Y/Z)	C:\Git\research_data\ESMAC_2023\simulations\TD07\pre\dynamic21_l\marker_experimental.trc
DataRate	CameraRate	NumFrames	NumMarkers	Units	OrigDataRate	OrigDataStartFrame	OrigNumFrames
200.000000	200.000000	5	54	mm	200.000000	144	385
Frame#	Time	C7			T10			CLAV			STRN			RBAK			LASI			RASI			SACR			RT2			RT3			RKNE			RS1			RS2			RS3			RANK			RHEE			RTOE			RM5D			LT1			LT2			LT3			LKNE			LS1			LS2			LS3			LANK			LHEE			LTOE			LM5D			RT1			*30			*31			*32			*33			*34			*35			*36			*37			*38			*39			*40			*41			*42			*43			*44			*45			*46			*47			*48			*49			*50			*51			*52			*53			
		X1	Y1	Z1	X2	Y2	Z2	X3	Y3	Z3	X4	Y4	Z4	X5	Y5	Z5	X6	Y6	Z6	X7	Y7	Z7	X8	Y8	Z8	X9	Y9	Z9	X10	Y10	Z10	X11	Y11	Z11	X12	Y12	Z12	X13	Y13	Z13	X14	Y14	Z14	X15	Y15	Z15	X16	Y16	Z16	X17	Y17	Z17	X18	Y18	Z18	X19	Y19	Z19	X20	Y20	Z20	X21	Y21	Z21	X22	Y22	Z22	X23	Y23	Z23	X24	Y24	Z24	X25	Y25	Z25	X26	Y26	Z26	X27	Y27	Z27	X28	Y28	Z28	X29	Y29	Z29	X30	Y30	Z30	X31	Y31	Z31	X32	Y32	Z32	X33	Y33	Z33	X34	Y34	Z34	X35	Y35	Z35	X36	Y36	Z36	X37	Y37	Z37	X38	Y38	Z38	X39	Y39	Z39	X40	Y40	Z40	X41	Y41	Z41	X42	Y42	Z42	X43	Y43	Z43	X44	Y44	Z44	X45	Y45	Z45	X46	Y46	Z46	X47	Y47	Z47	X48	Y48	Z48	X49	Y49	Z49	X50	Y50	Z50	X51	Y51	Z51	X52	Y52	Z52	X53	Y53	Z53	X54	Y54	Z54	

145	0.72	444.6426696777343	1226.163330078125	178.020233154297	419.081329345703	1003.142761230469	206.8884735107423	569.2659912109374	1171.965576171875	201.5917205810548	619.8918457031249	1037.887329101562	203.3514556884767	403.3049926757811	1091.9736328125	278.4213562011719	534.0656127929688	802.1152954101562	70.65965270996104	576.5778808593749	806.833984375	322.932586669922	403.0672912597655	844.9635009765625	228.896224975586	591.1607055664061	503.4110412597657	333.8558349609376	636.2150268554686	524.3793334960938	341.4490966796876	684.0307006835936	436.7500000000001	318.201629638672	674.8701171874999	325.8352966308594	334.7998657226564	664.0314331054686	259.9482116699219	328.7644958496095	716.1062622070311	274.2903747558594	334.2875976562501	768.4791870117188	81.4973526000977	307.1716613769532	726.7189331054688	39.069263458252	267.1717529296876	912.7511596679688	83.9226913452149	270.5884094238283	851.7078857421874	50.00049972534185	312.9107055664064	451.6107177734374	604.6553955078125	51.07527542114266	405.5122070312499	557.6895141601562	60.58082199096687	453.8536071777343	540.4176025390625	66.06205749511727	353.4331359863281	414.1199035644531	87.72892761230476	281.6731262207031	301.7232055664062	81.34389495849615	221.0124969482421	273.8927307128906	77.78205108642582	256.8433837890625	242.0103759765625	92.84981536865239	120.7855072021484	119.4602355957031	111.2951431274414	72.78256988525386	119.9283447265625	148.0085906982422	251.1912078857422	38.14336395263673	141.4498748779297	172.8902740478515	41.15290451049805	94.59296417236331	630.7720336914061	550.5902099609375	348.7022399902345	nan	nan	nan	nan	nan	nan	nan	nan	nan	nan	nan	nan	nan	nan	nan	nan	nan	nan	nan	nan	nan	nan	nan	nan	nan	nan	nan	nan	nan	nan	nan	nan	nan	nan	nan	nan	nan	nan	nan	nan	nan	nan	nan	nan	nan	nan	nan	nan	nan	nan	nan	nan	nan	nan	nan	nan	nan	nan	nan	nan	nan	nan	nan	nan	nan	nan	nan	nan	nan	nan	nan	nan	
146	0.725	451.6201782226561	1225.420654296875	179.015350341797	425.997589111328	1002.433227539062	207.1631011962891	576.3659667968749	1171.1572265625	202.7593231201173	627.0815429687499	1037.132568359375	204.6102294921876	410.254913330078	1091.044067382812	279.2032470703126	541.7711791992188	800.798095703125	71.37346649169932	583.1511840820311	806.5951538085938	323.7479553222657	409.8480224609374	844.0230712890625	228.7505493164063	599.1725463867186	503.6559143066407	333.6638183593751	644.0842895507811	524.8263549804688	341.4015197753907	692.6781005859374	437.4479980468751	318.3107299804689	682.4529418945311	326.3471679687501	334.6957397460939	670.5017089843749	260.8231201171876	328.5077514648439	722.8390502929686	274.1238403320313	334.0520935058595	771.2959594726562	80.63625335693364	306.8770751953126	728.0355224609375	39.64338684082036	267.2102355957032	915.6943359375	78.47850799560553	269.7122497558595	853.3862304687499	46.81245422363286	312.4053344726564	459.4299011230468	603.3621826171875	51.61771774292001	413.3668212890624	556.3142700195312	60.99236679077156	461.7257690429687	539.07177734375	66.39682006835946	361.1437377929688	412.5715637207031	87.41240692138679	287.4210205078125	301.2606201171875	81.14245605468756	226.2734680175781	274.5722351074219	77.59466552734379	261.546630859375	242.0363006591797	92.62949371337895	123.3334884643554	122.076530456543	110.9956665039063	75.57018280029293	123.6745147705078	147.8728637695312	251.497573852539	37.9452247619629	141.3521728515626	173.5996398925781	42.39285278320313	94.56009674072268	638.8541870117186	550.861083984375	348.5415039062501	nan	nan	nan	nan	nan	nan	nan	nan	nan	nan	nan	nan	nan	nan	nan	nan	nan	nan	nan	nan	nan	nan	nan	nan	nan	nan	nan	nan	nan	nan	nan	nan	nan	nan	nan	nan	nan	nan	nan	nan	nan	nan	nan	nan	nan	nan	nan	nan	nan	nan	nan	nan	nan	nan	nan	nan	nan	nan	nan	nan	nan	nan	nan	nan	nan	nan	nan	nan	nan	nan	nan	nan	
147	0.73	458.5740356445311	1224.763305664062	180.0071563720704	432.9046325683593	1001.8037109375	207.4298553466798	583.4455566406249	1170.4462890625	203.9132232666017	634.2672729492186	1036.482788085938	205.8724822998048	417.2019042968749	1090.222778320312	280.0127563476563	549.5001220703125	799.550537109375	72.11270141601572	589.7030639648436	806.47509765625	324.5691223144532	416.6165771484374	843.1600952148438	228.5722808837891	607.2031860351561	504.0633850097657	333.6632385253907	651.9460449218749	525.500732421875	341.3786926269532	701.2898559570311	438.2645568847657	318.4782104492189	690.0422973632811	327.0611877441407	334.7907104492189	677.0307617187499	261.9707336425782	328.6956787109376	729.5488891601561	274.1601867675782	333.9581909179689	773.8615112304688	79.92518615722661	306.669891357422	729.1395874023438	40.31083679199223	267.3532714843751	918.32568359375	73.29912567138678	268.8994750976564	854.7705688476561	43.88301086425786	312.0018310546877	467.4443664550781	602.1239013671875	52.18078994750985	421.4627380371093	554.9479370117188	61.41708755493172	469.8546752929687	537.783447265625	66.75228118896493	369.2028503417969	410.9793395996094	87.02055358886726	293.4645385742188	300.8308410644531	80.90309906005865	231.8336334228515	275.3211975097656	77.41706848144536	266.5344848632812	242.1171569824219	92.3834609985352	126.1881561279297	124.8765182495117	110.7466812133789	78.76382446289058	127.662467956543	147.8533172607422	251.781509399414	37.68923568725587	141.2772064208985	174.3954162597656	43.78252029418947	94.56600189208987	646.9521484374999	551.2891845703125	348.5664367675782	nan	nan	nan	nan	nan	nan	nan	nan	nan	nan	nan	nan	nan	nan	nan	nan	nan	nan	nan	nan	nan	nan	nan	nan	nan	nan	nan	nan	nan	nan	nan	nan	nan	nan	nan	nan	nan	nan	nan	nan	nan	nan	nan	nan	nan	nan	nan	nan	nan	nan	nan	nan	nan	nan	nan	nan	nan	nan	nan	nan	nan	nan	nan	nan	nan	nan	nan	nan	nan	nan	nan	nan	
148	0.735	465.4991149902343	1224.194213867188	180.9933013916016	439.7973327636718	1001.25634765625	207.6908264160157	590.4985351562499	1169.835327148438	205.0489959716798	641.4410400390624	1035.939697265625	207.1320190429689	424.1402587890624	1089.5146484375	280.8504333496094	557.2427978515625	798.3809814453125	72.87734985351572	596.2303466796874	806.4735107421875	325.3954467773439	423.3692626953124	842.3751831054688	228.3655242919923	615.2920532226561	504.6384582519532	333.8831787109376	659.8353881835936	526.418701171875	341.3780822753907	709.8389892578124	439.1752014160157	318.7037658691407	697.6124877929686	327.9434509277344	335.0847167968751	683.5882568359374	263.3408508300782	329.3468322753907	736.2125244140624	274.3695373535157	333.9926757812501	776.1885986328125	79.35883331298832	306.534149169922	730.0679931640625	41.04132080078129	267.5755310058595	920.6514282226562	68.4772567749024	268.1575927734377	855.8920288085936	41.2548217773438	311.6945800781252	475.6599121093749	600.9445190429688	52.75779724121102	429.8102416992187	553.5916137695312	61.84254837036141	478.2500915527343	536.5590209960938	67.12796020507821	377.6184692382812	409.3488159179688	86.5460510253907	299.8204345703125	300.4381103515625	80.61799621582037	237.7131652832031	276.1406860351562	77.24302673339848	271.8270263671875	242.2563629150391	92.10643768310553	129.3791809082031	127.8615493774414	110.5480194091797	82.39989471435543	131.8897552490234	147.9528198242188	252.0401611328125	37.37549591064455	141.2285766601563	175.2997894287109	45.33380508422853	94.61001586914065	655.0985107421874	551.8782958984375	348.8031616210939	nan	nan	nan	nan	nan	nan	nan	nan	nan	nan	nan	nan	nan	nan	nan	nan	nan	nan	nan	nan	nan	nan	nan	nan	nan	nan	nan	nan	nan	nan	nan	nan	nan	nan	nan	nan	nan	nan	nan	nan	nan	nan	nan	nan	nan	nan	nan	nan	nan	nan	nan	nan	nan	nan	nan	nan	nan	nan	nan	nan	nan	nan	nan	nan	nan	nan	nan	nan	nan	nan	nan	nan	
149	0.74	472.3902587890624	1223.715454101562	181.9717407226563	446.670684814453	1000.792724609375	207.9481658935548	597.5187377929686	1169.326293945312	206.1622924804689	648.5944824218749	1035.504516601562	208.3824462890626	431.0643615722655	1088.924072265625	281.7166137695313	564.9893188476562	797.2967529296875	73.6672363281251	602.7302246093749	806.5892944335938	326.2264404296876	430.1024780273436	841.6685180664062	228.1348419189454	623.4701538085936	505.3788757324219	334.3415832519532	667.7804565429686	527.58349609375	341.4013977050782	718.2960205078124	440.1508789062501	318.9863281250001	705.1309814453124	328.9513854980469	335.5685119628907	690.1364135742186	264.8678588867188	330.4484252929689	742.8006591796874	274.7130126953126	334.134735107422	778.2888793945312	78.92743682861332	306.4531250000002	730.8516845703125	41.80438232421879	267.8514099121095	922.6826782226562	64.08644866943365	267.4923706054689	856.7811279296874	38.95735549926763	311.4758605957033	484.0805664062499	599.8250122070312	53.34128952026376	438.4179077148437	552.24365234375	62.25472259521492	486.9197998046874	535.4014892578125	67.52128601074227	386.3953857421875	407.6861267089844	85.98404693603523	306.5043334960938	300.0851745605469	80.2804794311524	243.9315338134765	277.0295715332031	77.06593322753911	277.4435424804688	242.456039428711	91.79413604736334	132.9353790283203	131.0302276611328	110.3981018066407	86.51150512695308	136.3496551513672	148.1707458496094	252.2753601074218	37.00915527343751	141.2082824707032	176.3394470214843	47.05797576904298	94.69006347656253	663.3176269531249	552.6253051757812	349.2674560546876	nan	nan	nan	nan	nan	nan	nan	nan	nan	nan	nan	nan	nan	nan	nan	nan	nan	nan	nan	nan	nan	nan	nan	nan	nan	nan	nan	nan	nan	nan	nan	nan	nan	nan	nan	nan	nan	nan	nan	nan	nan	nan	nan	nan	nan	nan	nan	nan	nan	nan	nan	nan	nan	nan	nan	nan	nan	nan	nan	nan	nan	nan	nan	nan	nan	nan	nan	nan	nan	nan	nan	nan	
